
<svg xmlns="http://www.w3.org/2000/svg" xmlns:xlink="http://www.w3.org/1999/xlink" width="158.643" height="142.232" viewBox="0 0 158.643 142.232">
  <defs>
    <clipPath id="clip-path">
      <rect x="152" y="-5" width="158.643" height="142.232" fill="none"/>
    </clipPath>
  </defs>
  <g id="Scroll_Group_2" data-name="Scroll Group 2" transform="translate(-152 5)" clip-path="url(#clip-path)" style="isolation: isolate">
    <g id="Block_3" data-name="Block 3" transform="translate(-108 -313.768)">
      <text id="_" data-name="
" transform="translate(108 1090)" fill="#111" font-size="10" font-family="Helvetica" letter-spacing="0.01em"><tspan x="0" y="0"></tspan><tspan font-family="Lusitana"><tspan x="0" y="12"></tspan></tspan></text>
      <g id="Fire_and_Smoke" data-name="Fire and Smoke" transform="translate(-761.203 -1148.029)">
        <path id="Path_302" data-name="Path 302" d="M1034.547,1548.1l-1.049-3.356.524-3.88,1.258-5.348s1.573-4.195,1.783-4.824,2.2-6.083,2.2-6.083,1.993-3.985,2.307-4.4,2.1-3.671,2.517-4.195,3.461-3.775,3.461-3.775,3.88-3.146,4.195-3.461,5.558-2.726,5.978-2.936a37.063,37.063,0,0,1,4.09-1.993c.629-.1,4.719-.944,4.719-.944h4.719l1.029.4s1.356.621,1.469.678,1.723.96,1.723.96,1.553.816,1.638.9,1.582.708,1.864.877,1.949.932,2.147,1.017l2.881,1.243,1.864.678,2.034.452,1.76.234a13.8,13.8,0,0,1,2.434,0,33.566,33.566,0,0,0,3.628.286,15.134,15.134,0,0,1,2.578,0c.525.143,2.673-.286,3.58,0s3.341.764,3.484.811,3.819.907,3.819.907,2.2.812,2.339.955,2.578,1.766,2.578,1.766l2.578,2.2,2.291,2.816,1,2.387,1.384,3.58s.239,1.384.239,1.623.859,3.771.859,4.057a19.838,19.838,0,0,0,0,2.387,30.4,30.4,0,0,1,.382,3.819,31.212,31.212,0,0,0,.43,3.484l1.193,3.055.859,1.814,1.384,2.434,1.241,2.2,1.48,1.862" transform="translate(1.271 -9)" fill="none" stroke="#4c2818" stroke-width="1"/>
        <path id="Path_303" data-name="Path 303" d="M1084.114,1532.188l-1.186.989s-1.017,1.073-1.073,1.214-.4,1.017-.311,1.158.9,1.158,1.017,1.3.706.678,1.1,1.073a21.213,21.213,0,0,0,1.667,1.5c.2.113,1.892,1.44,2.2,1.723a5.367,5.367,0,0,1,1.13,1.271c.169.4.226,1.61-.17,1.808s-2.2,1.243-2.429,1.3a22.388,22.388,0,0,0-1.949,1.384,7.682,7.682,0,0,0-1.553.932c-.2.282-.706,1.328-.706,1.328s-.254.989-.311,1.073.028.48.311,1.158a9.3,9.3,0,0,0,1.808,1.977,10.391,10.391,0,0,1,1.328.876,16.154,16.154,0,0,1,.847,1.469v1.271a12.217,12.217,0,0,1-.565,1.412c-.113.113-1.158,1.356-1.158,1.356l-.932,1.158-.226,1.243a15.006,15.006,0,0,1,.226,1.723c-.057.085-.226,1.186,0,1.356a12,12,0,0,1,.932,2.429c.057.254-.028,2.09,0,2.175a5.368,5.368,0,0,1,0,.678" fill="none" stroke="#4c2818" stroke-width="1"/>
        <path id="Path_304" data-name="Path 304" d="M1075.839,1554.275l-.226,1.44s.028,1.214.226,1.412a10.988,10.988,0,0,1,1.073,1.638c.226.452.763,1.356.989,1.808s.876,1.638.876,1.638l.819,1.271a12.957,12.957,0,0,1,.65,1.384c0,.141-.254,1.356-.282,1.5s-.367.565-.367.819a9.7,9.7,0,0,1-.17,1.13" fill="none" stroke="#4c2818" stroke-width="1"/>
        <path id="Path_305" data-name="Path 305" d="M1075.811,1566.109l10.761,5.734" fill="none" stroke="#4c2818" stroke-width="1"/>
        <path id="Path_306" data-name="Path 306" d="M1102.7,1564.047l-14.744,4.689-2.853,1.327-13.529,5.479" fill="none" stroke="#4c2818" stroke-width="1"/>
        <path id="Path_307" data-name="Path 307" d="M1072.619,1572.606l18.048-.141" fill="none" stroke="#4c2818" stroke-width="1"/>
        <path id="Path_308" data-name="Path 308" d="M1104.112,1571.843H1082.73" fill="none" stroke="#4c2818" stroke-width="1"/>
        <path id="Path_309" data-name="Path 309" d="M1095.695,1574.809l-12.23-3.756" fill="none" stroke="#4c2818" stroke-width="1"/>
        <path id="Path_310" data-name="Path 310" d="M1091.656,1547.892s-1.412,1.017-1.61,1.13a6.813,6.813,0,0,0-1.214,1.158,8.719,8.719,0,0,0-.367,1.3c0,.226.169,1.836.169,1.836a10.267,10.267,0,0,0,.2,1.61c.113.226.565,1.553.621,1.723a7.929,7.929,0,0,1,.593,1.356,8.4,8.4,0,0,0,.17,1.214c0,.113-.424,1.892-.48,1.977s-.565.734-.9,1.186a10.745,10.745,0,0,1-1.553,1.3,10.063,10.063,0,0,0-1.1,1.1c-.254.339-.169,0-.452,1.13a13.687,13.687,0,0,0,0,3.5" fill="none" stroke="#4c2818" stroke-width="1"/>
      </g>
      <g id="Person_1" data-name="Person 1" transform="translate(-761.203 -1148.029)">
        <path id="Path_311" data-name="Path 311" d="M1044.742,1551.624a31.647,31.647,0,0,0,0,4.248c.179,1.384.124.874.505,1.387a1.985,1.985,0,0,0,1.022.665h1.193a6.694,6.694,0,0,0,2.339,0c.812-.274.489-.477.907-1.1a8.239,8.239,0,0,0,.764-1.384c.048-.143,0-1.862,0-1.862a4.663,4.663,0,0,0-.239-1.241c-.143-.143-1.432-1.289-1.432-1.289a12.964,12.964,0,0,0-1.575-.859,13.982,13.982,0,0,0-1.957-.239l-1.193.621Z" fill="none" stroke="#4c2818" stroke-linecap="round" stroke-width="1"/>
        <path id="Path_312" data-name="Path 312" d="M1046.556,1559.786a3.879,3.879,0,0,0-1.146.477c-.239.239-1.1,1.384-1.1,1.384s-.955,1.861-1.05,2.052-1.241,2.244-1.384,2.578-.764,3.15-.764,3.15-.43,2.1-.477,2.291-.477,2-.477,2-.334,2.912-.43,3.2-.525,2.768-.525,2.912-1.575,3.055-1.575,3.2-.43,1.146,0,1.575a15.2,15.2,0,0,0,2.1,1.337s1.48.859,1.814,1,2.434,1.05,2.769,1.241a3.141,3.141,0,0,1,.716.716" fill="none" stroke="#4c2818" stroke-linecap="round" stroke-width="1"/>
        <path id="Path_313" data-name="Path 313" d="M1045.028,1588.979l-3.58-.171s-2.291.048-2.482,0-3.1-.215-3.484.334,1.2,1.766,1.945,1.862,1.071-.782,1.071-.782l2.187.257s2.482.477,2.864.525,3.055.525,3.055.525,2.339.286,2.912.286H1053l1.193-.286s.239-.764,0-1.05-2.959-2.148-2.959-2.148l-1.718-1.671s-1.957-.907-2.482-1.193-2-1.1-2-1.1l-.955-.477" fill="none" stroke="#4c2818" stroke-linecap="round" stroke-width="1"/>
        <path id="Path_314" data-name="Path 314" d="M1051.234,1587.376s4.583.1,4.869,0a12.587,12.587,0,0,1,1.909,0,6.981,6.981,0,0,0,.859-.525,1.932,1.932,0,0,0,.334-1,20.907,20.907,0,0,0-2.721-1.384s-2.482-1.05-2.816-1.241-3.1-2.2-3.1-2.2a5.538,5.538,0,0,1-1.287-2.1,5.7,5.7,0,0,1,0-2.482l.284-2.912.477-1.435.289-1.524a10.267,10.267,0,0,0,.571-1.388,4.164,4.164,0,0,0,.671-1.957c.083-1.337.5-1.823,0-3.481a8.96,8.96,0,0,0-2.007-3.154" fill="none" stroke="#4c2818" stroke-linecap="round" stroke-width="1"/>
        <path id="Path_315" data-name="Path 315" d="M1045.458,1563.318a17.873,17.873,0,0,1,0,3.2,29.252,29.252,0,0,0-.286,4.248c0,.382.286,3.771.286,4.3s.382,3.485.477,3.962a23.185,23.185,0,0,0,.859,2.434,7.263,7.263,0,0,0,.888,2.158,1.357,1.357,0,0,0,1.307.467" fill="none" stroke="#4c2818" stroke-linecap="round" stroke-width="1"/>
        <path id="Path_316" data-name="Path 316" d="M1048.99,1564.082l-.477,3.866-.573,4.535s-.048,3.532,0,3.676,0,4.153,0,4.3a26.236,26.236,0,0,1,1.05,3.1c.131.942-.612.406-.612.406" fill="none" stroke="#4c2818" stroke-linecap="round" stroke-width="1"/>
      </g>
      <g id="Mom" transform="translate(-761.203 -1148.029)">
        <path id="Path_317" data-name="Path 317" d="M1157.682,1535.005a37.663,37.663,0,0,1,.332,3.922c.143.143-.668,1.146-.764,1.289a10.517,10.517,0,0,1-1.527,1,15.282,15.282,0,0,1-2.052.239,11.909,11.909,0,0,1-2.1-.525,2.259,2.259,0,0,1-1.193-.716,3.325,3.325,0,0,1-.764-1.623,10.289,10.289,0,0,0,0-1.718c-.1-.43-.286-1.193.239-1.671s1.874-1.031,2.3-1.365.945-.619,4.669.24A1.584,1.584,0,0,1,1157.682,1535.005Z" fill="none" stroke="#4c2818" stroke-linecap="round" stroke-width="1"/>
        <path id="Path_318" data-name="Path 318" d="M1155.723,1542.411l1,.668.859,1.146s.764,1.241.859,1.432.716,1.289.859,1.575.621,1.05.907,1.671a16.367,16.367,0,0,1,.764,2.148c.191.668.764,2.864.764,2.864s.239.859.286,1.1a23.477,23.477,0,0,0,0,3.2c.191.764.334,1.337.382,1.623a2.941,2.941,0,0,0,.477,1.146,11.945,11.945,0,0,1,.764,1.146c.239.382.668.955.955,1.432s.859,1.289,1,1.623.334.764.477,1.193a4.168,4.168,0,0,1,.239,1.48,1.909,1.909,0,0,1-.955,1.146c-.525.334-1.146.764-1.719,1.05s-2.673,1.432-2.673,1.432-.907.286-1.289.382a9.056,9.056,0,0,0-2.1.716c-.239.239-1,.907-.239,1.05a7.431,7.431,0,0,0,2.339,0c.191-.1,2.291-.143,2.721-.191s1.241-.191,1.862-.239,1.1.1,2.052,0,2.792.012,2,.43a41.69,41.69,0,0,1-5.155,1.241l-2.2.859s-2.482.286-3.1.382a23.628,23.628,0,0,1-2.959.525h-2.959a27.577,27.577,0,0,1-4.344,0c-.636-.227-1.071-.263-.982-.907s1.339-1.668,1.339-1.668.275-.161,1.41-.862,1.1-1.146,1.432-1.337,1.432-.954,1.814-1.241,1.48-1.1,1.671-1.241.764-.955,1.432-1.146,1.862-.716,1.862-.716" fill="none" stroke="#4c2818" stroke-linecap="round" stroke-width="1"/>
        <path id="Path_319" data-name="Path 319" d="M1150.508,1572.2h-.937l-3.4.716a6,6,0,0,1-2.482,0,7.769,7.769,0,0,1-2.148-.716c-.239-.286-.859-.43-.573-1.05s.1-.859.573-1.1,1.337-.525,1.862-.859,1.718-.907,2-1.1,1.527-.955,1.527-.955l3.246-1.671s.778-.259,1.661-.509,1.871-.493,1.871-.493" fill="none" stroke="#4c2818" stroke-linecap="round" stroke-width="1"/>
        <path id="Path_320" data-name="Path 320" d="M1153.678,1564.459s-.9-2.613-.993-2.951c0,0,.084.325-.046-.169a4.419,4.419,0,0,1-.473-1.809c-.042-1.151.661-2.4.3-2.794s-2.363-.311-2.363-.311" transform="translate(0.043 -0.082)" fill="none" stroke="#4c2818" stroke-linecap="round" stroke-width="1"/>
        <path id="Path_321" data-name="Path 321" d="M1156.438,1549.428s-2.386,2.434-2.673,2.673-2.244,3.007-2.244,3.007-1.575,1.241-1.718,1.337-2.244,1.575-2.244,1.575-3.007,1.814-3.15,1.814-2.368.573-3.675.764-1.555,0-1.555,0" fill="none" stroke="#4c2818" stroke-linecap="round" stroke-width="1"/>
        <path id="Path_322" data-name="Path 322" d="M1153.718,1546.8l-2.864,3.819s-1.862,3.628-2,3.723-1.957,2.1-2.243,2.244-2.673,2-3.007,2.052a20.744,20.744,0,0,0-3.861,1.071c-.965.486-.338.991-.338.991" fill="none" stroke="#4c2818" stroke-linecap="round" stroke-width="1"/>
        <path id="Path_323" data-name="Path 323" d="M1148.036,1554.676s-1.025-.1-1.288-.549a1.632,1.632,0,0,1,.155-1.476c.191-.239.345-.887.584-1.03s1.7-.9,1.7-.9l1.48-2.387s.334-.716.43-.955,0-2.912,0-2.912l.907-1,.716-.477" fill="none" stroke="#4c2818" stroke-linecap="round" stroke-width="1"/>
        <path id="Path_324" data-name="Path 324" d="M1150.261,1544.607l-2.329,1.511-2.186,1.689s-1.521,1.2-1.806,1.422a19.112,19.112,0,0,1-2.281.889s-2.281,1.556-2.471,1.645a13.8,13.8,0,0,0-3.087,1.816.869.869,0,0,0,0,1.4" transform="translate(0.068)" fill="none" stroke="#4c2818" stroke-linecap="round" stroke-width="1"/>
        <path id="Path_325" data-name="Path 325" d="M1148.8,1550.192l-2,.477-2.1.764-2.482,1.146s-2.53,1.193-2.816,1.289-2.268,1.269-2.459,1.364-1.049-.266-1.049-.266" fill="none" stroke="#4c2818" stroke-linecap="round" stroke-width="1"/>
      </g>
      <g id="Kid" transform="translate(-761.203 -1148.029)">
        <path id="Path_326" data-name="Path 326" d="M1122.612,1556.054h0l.8-.107.674-.091h1.271a2.522,2.522,0,0,1,1.44.2,2.275,2.275,0,0,1,.819,1.13,1.321,1.321,0,0,1,.226.96,1.67,1.67,0,0,1-.621,1.186,6.213,6.213,0,0,1-1.469,1.017,12.222,12.222,0,0,1-1.469.367,7.694,7.694,0,0,1-2.09-.593,4.011,4.011,0,0,1-.932-1.1c-.113-.367-.565-1.271-.2-1.836a4.848,4.848,0,0,1,1.553-1.13" fill="none" stroke="#4c2818" stroke-linecap="round" stroke-width="0.75"/>
        <path id="Path_327" data-name="Path 327" d="M1122.655,1561.747s.262-.18-.169.317-.53.336-.788,1.144a6.791,6.791,0,0,0-.246,2.09c0,.448.049,2.04,0,2.587a23.435,23.435,0,0,0,0,3.234c.1.149.591.647.591.647l.114.287" transform="translate(0 -0.43)" fill="none" stroke="#4c2818" stroke-linecap="round" stroke-width="0.75"/>
        <path id="Path_328" data-name="Path 328" d="M1122.141,1571.578s-.056,1.015-.109,1.969-.056,1.275-.1,1.848a8.406,8.406,0,0,0,0,1.909,2.136,2.136,0,0,0,1.241,1.1,1.356,1.356,0,0,0,1.384-.286c.1-.191.143,0,.334-.573a4.135,4.135,0,0,0,.286-1.527,14.074,14.074,0,0,0-.286-2.052c-.048-.239-.334-1-.334-1v-1.146" fill="none" stroke="#4c2818" stroke-linecap="round" stroke-width="0.75"/>
        <path id="Path_329" data-name="Path 329" d="M1125.188,1575.719l.988,1.538a2.362,2.362,0,0,0,1.241.811,1,1,0,0,0,1.177-.568c.227-.644-.859-4.922-.969-5.453a15.555,15.555,0,0,0-.594-1.734" fill="none" stroke="#4c2818" stroke-linecap="round" stroke-width="0.75"/>
        <path id="Path_330" data-name="Path 330" d="M1126.594,1570.422l.823-.421s.811-.621.811-1-.048-1.861,0-2.482-.811-1.719-.811-1.719" fill="none" stroke="#4c2818" stroke-linecap="round" stroke-width="0.75"/>
        <path id="Path_331" data-name="Path 331" d="M1125.6,1564.8l2.2-.43a9.563,9.563,0,0,0,2.339-.62,1.311,1.311,0,0,0,.811-1,2.945,2.945,0,0,0-.114-.723,1.692,1.692,0,0,0-.3-.538" fill="none" stroke="#4c2818" stroke-linecap="round" stroke-width="0.75"/>
        <path id="Path_332" data-name="Path 332" d="M1125.555,1563.223a16.892,16.892,0,0,1,2.052-.811,9.539,9.539,0,0,0,1.48-.621c.286-.1,1.444-.322,1.444-.322" fill="none" stroke="#4c2818" stroke-linecap="round" stroke-width="0.75"/>
        <path id="Path_333" data-name="Path 333" d="M1126.125,1561.141h0s-.693.854,0,.719c.13-.025.816-.335,1.266-.5a10.959,10.959,0,0,1,1.506-.762,3.342,3.342,0,0,1,1.838-.3s.469.239.469.406-.547.531-.547.531" fill="none" stroke="#4c2818" stroke-linecap="round" stroke-width="0.75"/>
      </g>
      <g id="Dog" transform="translate(-761.203 -1148.029)">
        <path id="Path_334" data-name="Path 334" d="M1066.037,1583.358l.441-1.1a4.217,4.217,0,0,1,.477-.881c.11-.037.385-.578.7-.477s.551.881.551.881v.991l-.331,1.359" fill="none" stroke="#4c2818" stroke-linecap="round" stroke-width="0.75"/>
        <path id="Path_335" data-name="Path 335" d="M1068.423,1581.963l1.285-1.028s.285-.385.551-.294.514.661.514.661v.918l-.294.7a4.85,4.85,0,0,0-.22.844c-.055.395.064.624,0,.734" fill="none" stroke="#4c2818" stroke-linecap="round" stroke-width="0.75"/>
        <path id="Path_336" data-name="Path 336" d="M1070.3,1584.423a8.058,8.058,0,0,0,2.344,0l1.065.367.771.33,1.1.22s.991-.037,1.175,0,.808.037.844-.22a1.751,1.751,0,0,0-.24-1.2,1.725,1.725,0,0,0-.935-.6l-1.065-.257h-1.248a3.964,3.964,0,0,1-1.726-.184c-.431-.294,0-.991,0-.991a1.677,1.677,0,0,1,.7-.147c.523-.037,1.4,0,1.4,0a11.939,11.939,0,0,1,1.638.288c.184.11,1.483.483,1.483.483s.588.33.624.551.367.808.4,1.065,0,1.579,0,1.8v2.68l-.184,1.4-.22,1.322a4.446,4.446,0,0,1-.624,1.248.432.432,0,0,1-.624,0l-.22-.734" fill="none" stroke="#4c2818" stroke-linecap="round" stroke-width="0.75"/>
        <path id="Path_337" data-name="Path 337" d="M1077.617,1588.838l-.491.652s-.147,1.1-.184,1.212-.551,1.4-.588,1.505a2.935,2.935,0,0,1-.7,1.285.806.806,0,0,1-.991,0,2.722,2.722,0,0,1-.184-1.285,3.726,3.726,0,0,1,.331-1.248,6.45,6.45,0,0,0,.477-1.285c.073-.184-.073-.844,0-1.065s-.624-.991-.624-.991l-.955.22s-.918.294-.991.441a18.981,18.981,0,0,0-.184,1.983,9.918,9.918,0,0,1-.257,1.285c-.073.184-.624.991-.624.991a12.575,12.575,0,0,1-.991.955c-.11.037-.661-.257-.661-.4s.477-2.13.477-2.13l.184-2.35" fill="none" stroke="#4c2818" stroke-linecap="round" stroke-width="0.75"/>
        <path id="Path_338" data-name="Path 338" d="M1070,1591.62l-.845,1.212s-.367.615-.808.734a.794.794,0,0,1-.955-.257,1.573,1.573,0,0,1-.4-1.065,3.059,3.059,0,0,1,.771-1.322c.257-.147.588-.22.588-.551a7.587,7.587,0,0,0-.588-1.542,3.021,3.021,0,0,0-.771-.294c-.294-.037-1.469-.294-1.469-.294s-.991.009-1.322-.33a.734.734,0,0,1,0-1.028c.229-.312.873-.22.873-.22a6.692,6.692,0,0,1,1.22,0,3.539,3.539,0,0,0,.881,0" fill="none" stroke="#4c2818" stroke-linecap="round" stroke-width="0.75"/>
        <path id="Path_339" data-name="Path 339" d="M1067.146,1586.122l-1.482-.157h-.4l-1.212-.367s-.395-.349-.257-.588.248-.275.808-.367a6.826,6.826,0,0,1,1.432,0v-1.228" fill="none" stroke="#4c2818" stroke-linecap="round" stroke-width="0.75"/>
      </g>
      <g id="Moon" transform="translate(-635.432 -1146.029)">
        <path id="Path_340" data-name="Path 340" d="M1031.643,1466.764l-4.716,1.3s-1.924,1.675-2.358,2.048-2.482,2.668-2.482,2.668l-1.578,4.008-.1.274-.434,4.033a17.706,17.706,0,0,0,.434,3.785,6.969,6.969,0,0,0,1.3,2.792,22.166,22.166,0,0,0,2.11,2.668l2.73,2.048s3.351.993,3.661,1.117a29.221,29.221,0,0,0,3.723.372,28.123,28.123,0,0,0,4.1-.372c.434-.062,3.041-.993,3.351-1.117s2.358-1.8,2.668-2.048a8.656,8.656,0,0,0,1.365-2.11c.419-.853-.078-.667,0-.993" fill="none" stroke="#4c2818" stroke-width="1"/>
        <path id="Path_341" data-name="Path 341" d="M1032.326,1467.695l-1.924,1.8s-1.3,1.241-1.489,1.489a6.918,6.918,0,0,0-1.241,2.358,7.6,7.6,0,0,0-.621,2.42,15.887,15.887,0,0,0,0,2.979c.186.745.621,2.854.621,2.854a5.506,5.506,0,0,0,1.241,2.42,11.668,11.668,0,0,0,2.917,2.42,10.843,10.843,0,0,0,2.482,1.3l3.537,1.179h4.778l2.11-.869.931-.807" fill="none" stroke="#4c2818" stroke-width="1"/>
      </g>
      <g id="Stars" transform="translate(-635.432 -1146.029)">
        <path id="Path_342" data-name="Path 342" d="M1038.779,1460.029l2.769,5.3" fill="none" stroke="#4c2818" stroke-width="1"/>
        <path id="Path_343" data-name="Path 343" d="M1041.978,1461.127l-3.628,2.625" fill="none" stroke="#4c2818" stroke-width="1"/>
        <path id="Path_344" data-name="Path 344" d="M1038.063,1461.7l4.582,1.623" fill="none" stroke="#4c2818" stroke-width="1"/>
        <path id="Path_345" data-name="Path 345" d="M1040.354,1460.888l-.716,3.819" fill="none" stroke="#4c2818" stroke-width="1"/>
        <path id="Path_346" data-name="Path 346" d="M1042.932,1479.074c-.1-.143-3.819-2.769-3.819-2.769" fill="none" stroke="#4c2818" stroke-width="1"/>
        <path id="Path_347" data-name="Path 347" d="M1038.063,1477.022h4.248" fill="none" stroke="#4c2818" stroke-width="1"/>
        <path id="Path_348" data-name="Path 348" d="M1039.114,1479.743l1.241-2.578" fill="none" stroke="#4c2818" stroke-width="1"/>
        <path id="Path_349" data-name="Path 349" d="M1040.736,1479.743l-.573-3.007" fill="none" stroke="#4c2818" stroke-width="1"/>
        <path id="Path_350" data-name="Path 350" d="M1037.634,1478.454l3.437-1.193" fill="none" stroke="#4c2818" stroke-width="1"/>
        <path id="Path_351" data-name="Path 351" d="M1010.044,1470.912l4.964-2.673" fill="none" stroke="#4c2818" stroke-width="1"/>
        <path id="Path_352" data-name="Path 352" d="M1013.767,1472.105l-2.2-4.153" fill="none" stroke="#4c2818" stroke-width="1"/>
        <path id="Path_353" data-name="Path 353" d="M1011.905,1472.105l1.289-2.769" fill="none" stroke="#4c2818" stroke-width="1"/>
        <path id="Path_354" data-name="Path 354" d="M1015.008,1470.339l-4.869-.907" fill="none" stroke="#4c2818" stroke-width="1"/>
      </g>
    </g>
  </g>
</svg>
