<svg xmlns="http://www.w3.org/2000/svg" width="41" height="34.5" viewBox="0 0 41 34.5">
  <g id="Raft" transform="translate(-158 -363.5)" opacity="0.88">
    <g id="Log" transform="translate(4 6)">
      <g id="Ellipse_5" data-name="Ellipse 5" transform="translate(154 381)" fill="#fff" stroke="#264d94" stroke-width="1">
        <circle cx="5.5" cy="5.5" r="5.5" stroke="none"/>
        <circle cx="5.5" cy="5.5" r="5" fill="none"/>
      </g>
      <g id="Ellipse_4" data-name="Ellipse 4" transform="translate(157 384)" fill="none" stroke="#264d94" stroke-width="1">
        <circle cx="2.5" cy="2.5" r="2.5" stroke="none"/>
        <circle cx="2.5" cy="2.5" r="2" fill="none"/>
      </g>
    </g>
    <g id="Log-2" data-name="Log" transform="translate(14 6)">
      <g id="Ellipse_5-2" data-name="Ellipse 5" transform="translate(154 381)" fill="#fff" stroke="#264d94" stroke-width="1">
        <circle cx="5.5" cy="5.5" r="5.5" stroke="none"/>
        <circle cx="5.5" cy="5.5" r="5" fill="none"/>
      </g>
      <g id="Ellipse_4-2" data-name="Ellipse 4" transform="translate(157 384)" fill="#fff" stroke="#264d94" stroke-width="1">
        <circle cx="2.5" cy="2.5" r="2.5" stroke="none"/>
        <circle cx="2.5" cy="2.5" r="2" fill="none"/>
      </g>
    </g>
    <g id="Log-3" data-name="Log" transform="translate(24 6)">
      <g id="Ellipse_5-3" data-name="Ellipse 5" transform="translate(154 381)" fill="#fff" stroke="#264d94" stroke-width="1">
        <circle cx="5.5" cy="5.5" r="5.5" stroke="none"/>
        <circle cx="5.5" cy="5.5" r="5" fill="none"/>
      </g>
      <g id="Ellipse_4-3" data-name="Ellipse 4" transform="translate(157 384)" fill="#fff" stroke="#264d94" stroke-width="1">
        <circle cx="2.5" cy="2.5" r="2.5" stroke="none"/>
        <circle cx="2.5" cy="2.5" r="2" fill="none"/>
      </g>
    </g>
    <g id="Log-4" data-name="Log" transform="translate(34 6)">
      <g id="Ellipse_5-4" data-name="Ellipse 5" transform="translate(154 381)" fill="#fff" stroke="#264d94" stroke-width="1">
        <circle cx="5.5" cy="5.5" r="5.5" stroke="none"/>
        <circle cx="5.5" cy="5.5" r="5" fill="none"/>
      </g>
      <g id="Path_16" data-name="Path 16" transform="translate(157 384)">
        <path id="Path_355" data-name="Path 355" d="M2.5,4.5a2,2,0,1,1,2-2A2,2,0,0,1,2.5,4.5Z" fill="#fff"/>
        <path id="Path_356" data-name="Path 356" d="M2.5,1A1.5,1.5,0,1,0,4,2.5,1.5,1.5,0,0,0,2.5,1m0-1A2.5,2.5,0,1,1,0,2.5,2.5,2.5,0,0,1,2.5,0Z" fill="#264d94"/>
      </g>
    </g>
    <g id="Sail">
      <line id="Line_12" data-name="Line 12" y2="22" transform="translate(183.5 363.5)" fill="none" stroke="#264d94" stroke-width="1"/>
      <g id="Path_14" data-name="Path 14" transform="translate(186.156 386.28) rotate(163)">
        <path id="Path_357" data-name="Path 357" d="M.2,19.292,4.434,3.469l.262,0h.017l.277-.007L8.214,17.3Z" fill="#fff"/>
        <path id="Path_358" data-name="Path 358" d="M4.7,4.417.9,18.6l6.711-1.67L4.7,4.417m.686-1.461L8.813,17.664-.5,19.982,4.051,2.965l.65.006Z" fill="#264d94"/>
      </g>
      <g id="Path_15" data-name="Path 15" transform="translate(189.768 390.28) rotate(-163)">
        <path id="Path_359" data-name="Path 359" d="M10.78,22.987,1.645,20.365l3.236-15.9.579-.036.659-.037Z" fill="#fff"/>
        <path id="Path_360" data-name="Path 360" d="M5.734,4.914l-.439.026L2.227,20.012l7.857,2.255L5.734,4.914M6.5,3.869l4.972,19.838L1.063,20.718,4.468,3.988l.961-.059Z" fill="#264d94"/>
      </g>
    </g>
  </g>
</svg>
